<svg id="圖層_1" data-name="圖層 1" xmlns="http://www.w3.org/2000/svg" viewBox="0 0 72.55 72.55"><defs><style>.cls-1{fill:#d9c46f;}</style></defs><path class="cls-1" d="M61.84,33c-1.42-.11-2.74-.16-4-.38a1.53,1.53,0,0,1-.89-1A21.05,21.05,0,0,0,44.63,16.84c-1.12-.51-2.35-.77-3.51-1.21-.3-.11-.7-.4-.76-.68a15.33,15.33,0,0,1-.26-2.26c-.05-.63-.07-1.26-.1-1.9C50,11.6,60.71,21,61.84,33Z"/><path class="cls-1" d="M32.61,10.73c-.14,1.44-.25,2.87-.44,4.28,0,.24-.43.54-.72.62C23,17.94,17.76,23.33,15.57,31.77c-.09.32-.41.76-.67.8-1.38.19-2.76.27-4.16.39C11.6,22.22,21.15,12,32.61,10.73Z"/><path class="cls-1" d="M40,61.7l.39-4.45A58.33,58.33,0,0,0,46,55,20.58,20.58,0,0,0,56.63,41.86c.25-.88.61-1.24,1.53-1.24,1.15,0,2.3-.18,3.45-.28C62.15,49.17,49.37,61.83,40,61.7Z"/><path class="cls-1" d="M10.71,40.34c1.58.13,3,.2,4.35.38a1.22,1.22,0,0,1,.71.77c2.36,8,7.55,13.15,15.64,15.36a1.25,1.25,0,0,1,.77.83c.21,1.29.29,2.6.44,4.13a24.27,24.27,0,0,1-12-5A25.79,25.79,0,0,1,10.71,40.34Z"/><path class="cls-1" d="M15.19,35.25V38L1,36.74v-.18Z"/><path class="cls-1" d="M36.17,71.35l-1.3-14h2.8l-1.29,14Z"/><path class="cls-1" d="M37.68,15.14h-2.8c.43-4.71.86-9.36,1.29-14h.21Z"/><path class="cls-1" d="M57.41,37.94V35.28c2.44.21,4.8.4,7.16.62s4.75.46,7.12.83L58.06,38A4,4,0,0,1,57.41,37.94Z"/></svg>